<svg width="16" height="16" viewBox="0 0 16 16" fill="none" xmlns="http://www.w3.org/2000/svg">
<path d="M7.99995 6.5L13.4696 1.03034C13.7625 0.737443 14.2374 0.737447 14.5303 1.03035L14.9696 1.46965C15.2625 1.76255 15.2624 2.23742 14.9696 2.53031L9.49988 7.99983L14.9696 13.4696C15.2625 13.7625 15.2625 14.2374 14.9696 14.5303L14.5302 14.9696C14.2373 15.2625 13.7625 15.2625 13.4696 14.9696L7.99989 9.5L2.53024 14.9697C2.23734 15.2626 1.76244 15.2626 1.46955 14.9697L1.03028 14.5304C0.737409 14.2375 0.737414 13.7626 1.03029 13.4698L6.5 7.99983L1.03039 2.53031C0.737495 2.23742 0.73749 1.76255 1.03038 1.46965L1.46968 1.03035C1.76257 0.737446 2.23745 0.737444 2.53035 1.03034L7.99995 6.5Z" fill="#7F838B"/>
</svg>
